<mxfile host="Electron" agent="Mozilla/5.0 (Windows NT 10.0; Win64; x64) AppleWebKit/537.36 (KHTML, like Gecko) draw.io/28.1.2 Chrome/138.0.7204.243 Electron/37.4.0 Safari/537.36" version="28.1.2">
  <diagram name="Page-1" id="SE42pmTZq7RJ_vR_vw-c">
    <mxGraphModel dx="1389" dy="835" grid="1" gridSize="10" guides="1" tooltips="1" connect="1" arrows="1" fold="1" page="1" pageScale="1" pageWidth="1169" pageHeight="827" math="0" shadow="0">
      <root>
        <mxCell id="0" />
        <mxCell id="1" parent="0" />
        <mxCell id="ju5jl7tOnjt4p9IrhCYz-1" value="" style="rounded=1;whiteSpace=wrap;html=1;fillColor=none;" parent="1" vertex="1">
          <mxGeometry x="40" y="200" width="120" height="400" as="geometry" />
        </mxCell>
        <mxCell id="ju5jl7tOnjt4p9IrhCYz-2" value="&lt;font style=&quot;font-size: 16px;&quot;&gt;Sources&lt;/font&gt;" style="rounded=0;whiteSpace=wrap;html=1;fillColor=none;strokeColor=none;" parent="1" vertex="1">
          <mxGeometry x="40" y="170" width="120" height="40" as="geometry" />
        </mxCell>
        <mxCell id="ju5jl7tOnjt4p9IrhCYz-23" style="edgeStyle=orthogonalEdgeStyle;rounded=1;orthogonalLoop=1;jettySize=auto;html=1;entryX=0;entryY=0.5;entryDx=0;entryDy=0;curved=0;" parent="1" source="ju5jl7tOnjt4p9IrhCYz-5" target="ju5jl7tOnjt4p9IrhCYz-16" edge="1">
          <mxGeometry relative="1" as="geometry" />
        </mxCell>
        <mxCell id="ju5jl7tOnjt4p9IrhCYz-24" style="edgeStyle=orthogonalEdgeStyle;rounded=1;orthogonalLoop=1;jettySize=auto;html=1;entryX=0;entryY=0.5;entryDx=0;entryDy=0;curved=0;" parent="1" source="ju5jl7tOnjt4p9IrhCYz-5" target="ju5jl7tOnjt4p9IrhCYz-17" edge="1">
          <mxGeometry relative="1" as="geometry" />
        </mxCell>
        <mxCell id="ju5jl7tOnjt4p9IrhCYz-25" style="edgeStyle=orthogonalEdgeStyle;rounded=1;orthogonalLoop=1;jettySize=auto;html=1;entryX=0;entryY=0.5;entryDx=0;entryDy=0;curved=0;" parent="1" source="ju5jl7tOnjt4p9IrhCYz-5" target="ju5jl7tOnjt4p9IrhCYz-15" edge="1">
          <mxGeometry relative="1" as="geometry" />
        </mxCell>
        <mxCell id="ju5jl7tOnjt4p9IrhCYz-5" value="&lt;b&gt;ERP&lt;/b&gt;" style="image;aspect=fixed;html=1;points=[];align=center;fontSize=12;image=img/lib/azure2/general/Folder_Blank.svg;" parent="1" vertex="1">
          <mxGeometry x="56.87" y="455" width="86.25" height="70" as="geometry" />
        </mxCell>
        <mxCell id="ju5jl7tOnjt4p9IrhCYz-22" style="edgeStyle=orthogonalEdgeStyle;rounded=1;orthogonalLoop=1;jettySize=auto;html=1;curved=0;" parent="1" source="ju5jl7tOnjt4p9IrhCYz-6" target="ju5jl7tOnjt4p9IrhCYz-20" edge="1">
          <mxGeometry relative="1" as="geometry" />
        </mxCell>
        <mxCell id="ju5jl7tOnjt4p9IrhCYz-26" style="edgeStyle=orthogonalEdgeStyle;rounded=1;orthogonalLoop=1;jettySize=auto;html=1;entryX=0;entryY=0.5;entryDx=0;entryDy=0;curved=0;" parent="1" source="ju5jl7tOnjt4p9IrhCYz-6" target="ju5jl7tOnjt4p9IrhCYz-19" edge="1">
          <mxGeometry relative="1" as="geometry" />
        </mxCell>
        <mxCell id="ju5jl7tOnjt4p9IrhCYz-27" style="edgeStyle=orthogonalEdgeStyle;rounded=1;orthogonalLoop=1;jettySize=auto;html=1;entryX=0;entryY=0.5;entryDx=0;entryDy=0;curved=0;" parent="1" source="ju5jl7tOnjt4p9IrhCYz-6" target="ju5jl7tOnjt4p9IrhCYz-21" edge="1">
          <mxGeometry relative="1" as="geometry" />
        </mxCell>
        <mxCell id="ju5jl7tOnjt4p9IrhCYz-6" value="&lt;b&gt;CRM&lt;/b&gt;" style="image;aspect=fixed;html=1;points=[];align=center;fontSize=12;image=img/lib/azure2/general/Folder_Blank.svg;" parent="1" vertex="1">
          <mxGeometry x="56.870000000000005" y="275" width="86.25" height="70" as="geometry" />
        </mxCell>
        <mxCell id="ju5jl7tOnjt4p9IrhCYz-8" value="" style="rounded=1;whiteSpace=wrap;html=1;fillColor=none;glass=0;" parent="1" vertex="1">
          <mxGeometry x="200" y="200" width="140" height="400" as="geometry" />
        </mxCell>
        <mxCell id="ju5jl7tOnjt4p9IrhCYz-11" value="&lt;font style=&quot;font-size: 16px;&quot;&gt;Bronze Layer&lt;/font&gt;" style="rounded=0;whiteSpace=wrap;html=1;fillColor=none;strokeColor=none;" parent="1" vertex="1">
          <mxGeometry x="210" y="170" width="120" height="40" as="geometry" />
        </mxCell>
        <mxCell id="uo-9NKPbwjcLAVp0w_vz-15" value="" style="edgeStyle=orthogonalEdgeStyle;rounded=0;orthogonalLoop=1;jettySize=auto;html=1;" parent="1" source="ju5jl7tOnjt4p9IrhCYz-15" target="uo-9NKPbwjcLAVp0w_vz-3" edge="1">
          <mxGeometry relative="1" as="geometry" />
        </mxCell>
        <mxCell id="ju5jl7tOnjt4p9IrhCYz-15" value="erp_px_cat_g1v2" style="rounded=1;whiteSpace=wrap;html=1;fillColor=#ffe6cc;strokeColor=#d79b00;" parent="1" vertex="1">
          <mxGeometry x="215" y="530" width="110" height="40" as="geometry" />
        </mxCell>
        <mxCell id="uo-9NKPbwjcLAVp0w_vz-14" value="" style="edgeStyle=orthogonalEdgeStyle;rounded=0;orthogonalLoop=1;jettySize=auto;html=1;" parent="1" source="ju5jl7tOnjt4p9IrhCYz-16" target="uo-9NKPbwjcLAVp0w_vz-4" edge="1">
          <mxGeometry relative="1" as="geometry" />
        </mxCell>
        <mxCell id="ju5jl7tOnjt4p9IrhCYz-16" value="erp_loc_a101" style="rounded=1;whiteSpace=wrap;html=1;fillColor=#ffe6cc;strokeColor=#d79b00;" parent="1" vertex="1">
          <mxGeometry x="215" y="470" width="110" height="40" as="geometry" />
        </mxCell>
        <mxCell id="uo-9NKPbwjcLAVp0w_vz-13" value="" style="edgeStyle=orthogonalEdgeStyle;rounded=0;orthogonalLoop=1;jettySize=auto;html=1;" parent="1" source="ju5jl7tOnjt4p9IrhCYz-17" target="uo-9NKPbwjcLAVp0w_vz-5" edge="1">
          <mxGeometry relative="1" as="geometry" />
        </mxCell>
        <mxCell id="ju5jl7tOnjt4p9IrhCYz-17" value="erp_cust_az12" style="rounded=1;whiteSpace=wrap;html=1;fillColor=#ffe6cc;strokeColor=#d79b00;" parent="1" vertex="1">
          <mxGeometry x="215" y="410" width="110" height="40" as="geometry" />
        </mxCell>
        <mxCell id="uo-9NKPbwjcLAVp0w_vz-12" value="" style="edgeStyle=orthogonalEdgeStyle;rounded=0;orthogonalLoop=1;jettySize=auto;html=1;" parent="1" source="ju5jl7tOnjt4p9IrhCYz-19" target="uo-9NKPbwjcLAVp0w_vz-6" edge="1">
          <mxGeometry relative="1" as="geometry" />
        </mxCell>
        <mxCell id="ju5jl7tOnjt4p9IrhCYz-19" value="crm_sales_details" style="rounded=1;whiteSpace=wrap;html=1;fillColor=#ffe6cc;strokeColor=#d79b00;" parent="1" vertex="1">
          <mxGeometry x="215" y="350" width="110" height="40" as="geometry" />
        </mxCell>
        <mxCell id="uo-9NKPbwjcLAVp0w_vz-11" value="" style="edgeStyle=orthogonalEdgeStyle;rounded=0;orthogonalLoop=1;jettySize=auto;html=1;" parent="1" source="ju5jl7tOnjt4p9IrhCYz-20" target="uo-9NKPbwjcLAVp0w_vz-7" edge="1">
          <mxGeometry relative="1" as="geometry" />
        </mxCell>
        <mxCell id="ju5jl7tOnjt4p9IrhCYz-20" value="crm_prd_info" style="rounded=1;whiteSpace=wrap;html=1;fillColor=#ffe6cc;strokeColor=#d79b00;" parent="1" vertex="1">
          <mxGeometry x="215" y="290" width="110" height="40" as="geometry" />
        </mxCell>
        <mxCell id="uo-9NKPbwjcLAVp0w_vz-10" value="" style="edgeStyle=orthogonalEdgeStyle;rounded=0;orthogonalLoop=1;jettySize=auto;html=1;" parent="1" source="ju5jl7tOnjt4p9IrhCYz-21" target="uo-9NKPbwjcLAVp0w_vz-8" edge="1">
          <mxGeometry relative="1" as="geometry" />
        </mxCell>
        <mxCell id="ju5jl7tOnjt4p9IrhCYz-21" value="crm_cust_info" style="rounded=1;whiteSpace=wrap;html=1;fillColor=#ffe6cc;strokeColor=#d79b00;" parent="1" vertex="1">
          <mxGeometry x="215" y="230" width="110" height="40" as="geometry" />
        </mxCell>
        <mxCell id="uo-9NKPbwjcLAVp0w_vz-1" value="" style="rounded=1;whiteSpace=wrap;html=1;fillColor=none;glass=0;" parent="1" vertex="1">
          <mxGeometry x="380" y="200" width="140" height="400" as="geometry" />
        </mxCell>
        <mxCell id="uo-9NKPbwjcLAVp0w_vz-2" value="&lt;font style=&quot;font-size: 16px;&quot;&gt;Silver Layer&lt;/font&gt;" style="rounded=0;whiteSpace=wrap;html=1;fillColor=none;strokeColor=none;" parent="1" vertex="1">
          <mxGeometry x="390" y="170" width="120" height="40" as="geometry" />
        </mxCell>
        <mxCell id="f3yhqZdFpUQCLADtY24X-26" style="rounded=0;orthogonalLoop=1;jettySize=auto;html=1;exitX=1;exitY=0.5;exitDx=0;exitDy=0;jumpSize=10;entryX=0;entryY=0.5;entryDx=0;entryDy=0;strokeWidth=1;endArrow=none;endFill=0;" edge="1" parent="1" source="uo-9NKPbwjcLAVp0w_vz-3" target="f3yhqZdFpUQCLADtY24X-6">
          <mxGeometry relative="1" as="geometry" />
        </mxCell>
        <mxCell id="uo-9NKPbwjcLAVp0w_vz-3" value="erp_px_cat_g1v2" style="rounded=1;whiteSpace=wrap;html=1;fillColor=#f5f5f5;strokeColor=#666666;fontColor=#333333;" parent="1" vertex="1">
          <mxGeometry x="395" y="530" width="110" height="40" as="geometry" />
        </mxCell>
        <mxCell id="f3yhqZdFpUQCLADtY24X-25" style="rounded=0;orthogonalLoop=1;jettySize=auto;html=1;entryX=0;entryY=0.5;entryDx=0;entryDy=0;jumpSize=10;shape=wire;dashed=1;strokeWidth=1;endArrow=none;endFill=0;" edge="1" parent="1" source="uo-9NKPbwjcLAVp0w_vz-4" target="f3yhqZdFpUQCLADtY24X-7">
          <mxGeometry relative="1" as="geometry" />
        </mxCell>
        <mxCell id="uo-9NKPbwjcLAVp0w_vz-4" value="erp_loc_a101" style="rounded=1;whiteSpace=wrap;html=1;fillColor=#f5f5f5;strokeColor=#666666;fontColor=#333333;" parent="1" vertex="1">
          <mxGeometry x="395" y="470" width="110" height="40" as="geometry" />
        </mxCell>
        <mxCell id="f3yhqZdFpUQCLADtY24X-24" style="rounded=0;orthogonalLoop=1;jettySize=auto;html=1;exitX=1;exitY=0.5;exitDx=0;exitDy=0;jumpSize=10;entryX=0;entryY=0.5;entryDx=0;entryDy=0;strokeWidth=1;endArrow=none;endFill=0;" edge="1" parent="1" source="uo-9NKPbwjcLAVp0w_vz-5" target="f3yhqZdFpUQCLADtY24X-7">
          <mxGeometry relative="1" as="geometry">
            <mxPoint x="510" y="432.98" as="sourcePoint" />
            <mxPoint x="690" y="410.0012765957447" as="targetPoint" />
          </mxGeometry>
        </mxCell>
        <mxCell id="uo-9NKPbwjcLAVp0w_vz-5" value="erp_cust_az12" style="rounded=1;whiteSpace=wrap;html=1;fillColor=#f5f5f5;strokeColor=#666666;fontColor=#333333;" parent="1" vertex="1">
          <mxGeometry x="395" y="410" width="110" height="40" as="geometry" />
        </mxCell>
        <mxCell id="f3yhqZdFpUQCLADtY24X-23" style="rounded=0;orthogonalLoop=1;jettySize=auto;html=1;exitX=1;exitY=0.5;exitDx=0;exitDy=0;entryX=0;entryY=0.5;entryDx=0;entryDy=0;jumpStyle=arc;jumpSize=10;strokeWidth=1;endArrow=none;endFill=0;" edge="1" parent="1" source="uo-9NKPbwjcLAVp0w_vz-6" target="f3yhqZdFpUQCLADtY24X-8">
          <mxGeometry relative="1" as="geometry" />
        </mxCell>
        <mxCell id="uo-9NKPbwjcLAVp0w_vz-6" value="crm_sales_details" style="rounded=1;whiteSpace=wrap;html=1;fillColor=#f5f5f5;strokeColor=#666666;fontColor=#333333;" parent="1" vertex="1">
          <mxGeometry x="395" y="350" width="110" height="40" as="geometry" />
        </mxCell>
        <mxCell id="f3yhqZdFpUQCLADtY24X-21" style="rounded=0;orthogonalLoop=1;jettySize=auto;html=1;entryX=0;entryY=0.5;entryDx=0;entryDy=0;jumpStyle=arc;jumpSize=10;exitX=1;exitY=0.5;exitDx=0;exitDy=0;strokeWidth=1;endArrow=none;endFill=0;" edge="1" parent="1" source="uo-9NKPbwjcLAVp0w_vz-7" target="f3yhqZdFpUQCLADtY24X-6">
          <mxGeometry relative="1" as="geometry" />
        </mxCell>
        <mxCell id="uo-9NKPbwjcLAVp0w_vz-7" value="crm_prd_info" style="rounded=1;whiteSpace=wrap;html=1;fillColor=#f5f5f5;strokeColor=#666666;fontColor=#333333;" parent="1" vertex="1">
          <mxGeometry x="395" y="290" width="110" height="40" as="geometry" />
        </mxCell>
        <mxCell id="f3yhqZdFpUQCLADtY24X-22" style="rounded=0;orthogonalLoop=1;jettySize=auto;html=1;exitX=1;exitY=0.5;exitDx=0;exitDy=0;entryX=0;entryY=0.5;entryDx=0;entryDy=0;jumpStyle=arc;jumpSize=10;strokeWidth=1;endArrow=none;endFill=0;" edge="1" parent="1" source="uo-9NKPbwjcLAVp0w_vz-8" target="f3yhqZdFpUQCLADtY24X-7">
          <mxGeometry relative="1" as="geometry" />
        </mxCell>
        <mxCell id="uo-9NKPbwjcLAVp0w_vz-8" value="crm_cust_info" style="rounded=1;whiteSpace=wrap;html=1;fillColor=#f5f5f5;strokeColor=#666666;fontColor=#333333;" parent="1" vertex="1">
          <mxGeometry x="395" y="230" width="110" height="40" as="geometry" />
        </mxCell>
        <mxCell id="f3yhqZdFpUQCLADtY24X-1" value="" style="rounded=1;whiteSpace=wrap;html=1;fillColor=none;glass=0;" vertex="1" parent="1">
          <mxGeometry x="585" y="200" width="140" height="400" as="geometry" />
        </mxCell>
        <mxCell id="f3yhqZdFpUQCLADtY24X-2" value="&lt;font style=&quot;font-size: 16px;&quot;&gt;Gold Layer&lt;/font&gt;" style="rounded=0;whiteSpace=wrap;html=1;fillColor=none;strokeColor=none;" vertex="1" parent="1">
          <mxGeometry x="595" y="170" width="120" height="40" as="geometry" />
        </mxCell>
        <mxCell id="f3yhqZdFpUQCLADtY24X-6" value="dim_products" style="rounded=1;whiteSpace=wrap;html=1;fillColor=#fff2cc;strokeColor=#d6b656;" vertex="1" parent="1">
          <mxGeometry x="600" y="480" width="110" height="80" as="geometry" />
        </mxCell>
        <mxCell id="f3yhqZdFpUQCLADtY24X-7" value="dim_customers" style="rounded=1;whiteSpace=wrap;html=1;fillColor=#fff2cc;strokeColor=#d6b656;" vertex="1" parent="1">
          <mxGeometry x="600" y="360" width="110" height="80" as="geometry" />
        </mxCell>
        <mxCell id="f3yhqZdFpUQCLADtY24X-8" value="fact_sales" style="rounded=1;whiteSpace=wrap;html=1;fillColor=#fff2cc;strokeColor=#d6b656;" vertex="1" parent="1">
          <mxGeometry x="600" y="240" width="110" height="80" as="geometry" />
        </mxCell>
        <mxCell id="f3yhqZdFpUQCLADtY24X-27" value="&lt;font style=&quot;font-size: 24px;&quot;&gt;&lt;b&gt;Data Flow Diagram&lt;/b&gt;&lt;/font&gt;" style="text;html=1;align=center;verticalAlign=middle;resizable=0;points=[];autosize=1;strokeColor=none;fillColor=none;" vertex="1" parent="1">
          <mxGeometry x="40" y="130" width="240" height="40" as="geometry" />
        </mxCell>
      </root>
    </mxGraphModel>
  </diagram>
</mxfile>
